<svg width="145" height="55" viewBox="0 0 145 55" fill="none" xmlns="http://www.w3.org/2000/svg">
<circle cx="27.5" cy="27.5" r="27.5" fill="#C5EBAD"/>
<path fill-rule="evenodd" clip-rule="evenodd" d="M26.205 20.0463C26.205 20.0463 29.2486 12.3737 33.5963 11.1796C38.2333 9.90598 45 15.824 45 15.824C45 15.824 41.2348 22.6414 36.9752 23.6351C32.6576 24.6424 26.205 20.0463 26.205 20.0463Z" fill="#7FB955"/>
<path fill-rule="evenodd" clip-rule="evenodd" d="M19.6584 13.7129C23.175 14.2518 26.205 20.0463 26.205 20.0463C26.205 20.0463 21.8834 23.76 18.6025 23.6351C15.1255 23.5029 11 18.9907 11 18.9907C11 18.9907 15.7438 13.113 19.6584 13.7129Z" fill="#7FB955"/>
<path d="M26.205 20.0463C26.205 20.0463 29.2486 12.3737 33.5963 11.1796C38.2333 9.90598 45 15.824 45 15.824C45 15.824 41.2348 22.6414 36.9752 23.6351C32.6576 24.6424 26.205 20.0463 26.205 20.0463ZM26.205 20.0463C26.205 20.0463 23.175 14.2518 19.6584 13.7129C15.7438 13.113 11 18.9907 11 18.9907C11 18.9907 15.1255 23.5029 18.6025 23.6351C21.8834 23.76 26.205 20.0463 26.205 20.0463ZM26.205 20.0463V49" stroke="#7FB955" stroke-width="2" stroke-linecap="round"/>
<path d="M70.8102 24.2756C70.7344 23.6032 70.4219 23.0824 69.8727 22.7131C69.3234 22.339 68.6321 22.152 67.7988 22.152C67.2022 22.152 66.6861 22.2467 66.2505 22.4361C65.8149 22.6207 65.4764 22.8764 65.2349 23.2031C64.9981 23.5251 64.8798 23.892 64.8798 24.304C64.8798 24.6496 64.9603 24.9479 65.1212 25.1989C65.287 25.4498 65.5024 25.6605 65.7675 25.831C66.0374 25.9967 66.3263 26.1364 66.634 26.25C66.9418 26.3589 67.2377 26.4489 67.5218 26.5199L68.9423 26.8892C69.4063 27.0028 69.8821 27.1567 70.3698 27.3509C70.8575 27.545 71.3097 27.8007 71.7264 28.1179C72.143 28.4351 72.4792 28.8281 72.7349 29.2969C72.9953 29.7656 73.1255 30.3267 73.1255 30.9801C73.1255 31.804 72.9124 32.5355 72.4863 33.1747C72.0649 33.8139 71.4517 34.3182 70.6468 34.6875C69.8466 35.0568 68.8783 35.2415 67.742 35.2415C66.653 35.2415 65.7107 35.0687 64.9153 34.723C64.1198 34.3774 63.4972 33.8873 63.0474 33.2528C62.5976 32.6136 62.349 31.8561 62.3016 30.9801H64.5033C64.546 31.5057 64.7164 31.9437 65.0147 32.294C65.3177 32.6397 65.7036 32.8977 66.1724 33.0682C66.6459 33.2339 67.1643 33.3168 67.7278 33.3168C68.348 33.3168 68.8996 33.2197 69.3826 33.0256C69.8703 32.8267 70.2538 32.5521 70.5332 32.2017C70.8125 31.8466 70.9522 31.4323 70.9522 30.9588C70.9522 30.5279 70.8291 30.1752 70.5829 29.9006C70.3414 29.6259 70.0123 29.3987 69.5957 29.2188C69.1837 29.0388 68.7174 28.8802 68.1965 28.7429L66.4778 28.2741C65.313 27.9569 64.3897 27.4905 63.7079 26.875C63.0308 26.2595 62.6923 25.4451 62.6923 24.4318C62.6923 23.5937 62.9195 22.8622 63.3741 22.2372C63.8286 21.6122 64.4442 21.1269 65.2207 20.7812C65.9972 20.4309 66.8731 20.2557 67.8485 20.2557C68.8334 20.2557 69.7022 20.4285 70.455 20.7741C71.2126 21.1198 71.8092 21.5956 72.2448 22.2017C72.6804 22.803 72.9077 23.4943 72.9266 24.2756H70.8102ZM74.9776 39.0909V24.0909H77.0514V25.8594H77.229C77.3521 25.6321 77.5296 25.3693 77.7616 25.071C77.9937 24.7727 78.3156 24.5123 78.7276 24.2898C79.1395 24.0625 79.684 23.9489 80.3611 23.9489C81.2418 23.9489 82.0277 24.1714 82.719 24.6165C83.4103 25.0616 83.9525 25.7031 84.3455 26.5412C84.7432 27.3793 84.942 28.3878 84.942 29.5668C84.942 30.7457 84.7456 31.7566 84.3526 32.5994C83.9596 33.4375 83.4198 34.0838 82.7332 34.5384C82.0467 34.9882 81.2631 35.2131 80.3824 35.2131C79.7195 35.2131 79.1774 35.1018 78.756 34.8793C78.3393 34.6567 78.0126 34.3963 77.7759 34.098C77.5391 33.7997 77.3568 33.5346 77.229 33.3026H77.1011V39.0909H74.9776ZM77.0585 29.5455C77.0585 30.3125 77.1698 30.9848 77.3923 31.5625C77.6149 32.1402 77.9368 32.5923 78.3582 32.919C78.7796 33.241 79.2957 33.402 79.9065 33.402C80.541 33.402 81.0713 33.2339 81.4974 32.8977C81.9236 32.5568 82.2456 32.0952 82.4634 31.5128C82.6859 30.9304 82.7972 30.2746 82.7972 29.5455C82.7972 28.8258 82.6883 28.1795 82.4705 27.6065C82.2574 27.0336 81.9354 26.5814 81.5045 26.25C81.0784 25.9186 80.5457 25.7528 79.9065 25.7528C79.291 25.7528 78.7702 25.9115 78.344 26.2287C77.9226 26.5459 77.603 26.9886 77.3852 27.5568C77.1674 28.125 77.0585 28.7879 77.0585 29.5455ZM86.7213 35V24.0909H88.7739V25.8239H88.8875C89.0864 25.2367 89.4367 24.7751 89.9386 24.4389C90.4453 24.098 91.0182 23.9276 91.6574 23.9276C91.79 23.9276 91.9462 23.9323 92.1261 23.9418C92.3108 23.9512 92.4552 23.9631 92.5594 23.9773V26.0085C92.4741 25.9848 92.3226 25.9588 92.1048 25.9304C91.887 25.8973 91.6692 25.8807 91.4514 25.8807C90.9495 25.8807 90.5021 25.9872 90.1091 26.2003C89.7208 26.4086 89.4131 26.6998 89.1858 27.0739C88.9585 27.4432 88.8449 27.8646 88.8449 28.3381V35H86.7213ZM93.7971 35V24.0909H95.9207V35H93.7971ZM94.8695 22.4077C94.5002 22.4077 94.183 22.2846 93.9178 22.0384C93.6574 21.7874 93.5272 21.4891 93.5272 21.1435C93.5272 20.7931 93.6574 20.4948 93.9178 20.2486C94.183 19.9976 94.5002 19.8722 94.8695 19.8722C95.2389 19.8722 95.5537 19.9976 95.8141 20.2486C96.0793 20.4948 96.2119 20.7931 96.2119 21.1435C96.2119 21.4891 96.0793 21.7874 95.8141 22.0384C95.5537 22.2846 95.2389 22.4077 94.8695 22.4077ZM102.751 39.3182C101.885 39.3182 101.139 39.2045 100.514 38.9773C99.8939 38.75 99.3873 38.4493 98.9943 38.0753C98.6013 37.7012 98.3078 37.2917 98.1136 36.8466L99.9389 36.0938C100.067 36.3021 100.237 36.5223 100.45 36.7543C100.668 36.991 100.962 37.1922 101.331 37.358C101.705 37.5237 102.186 37.6065 102.773 37.6065C103.578 37.6065 104.243 37.41 104.768 37.017C105.294 36.6288 105.557 36.0085 105.557 35.1562V33.0114H105.422C105.294 33.2434 105.109 33.5014 104.868 33.7855C104.631 34.0696 104.304 34.3158 103.888 34.5241C103.471 34.7325 102.929 34.8366 102.261 34.8366C101.4 34.8366 100.623 34.6354 99.9318 34.233C99.2453 33.8258 98.7008 33.2268 98.2983 32.4361C97.9006 31.6406 97.7017 30.6629 97.7017 29.5028C97.7017 28.3428 97.8982 27.3485 98.2912 26.5199C98.6889 25.6913 99.2334 25.0568 99.9247 24.6165C100.616 24.1714 101.4 23.9489 102.276 23.9489C102.953 23.9489 103.5 24.0625 103.916 24.2898C104.333 24.5123 104.657 24.7727 104.889 25.071C105.126 25.3693 105.308 25.6321 105.436 25.8594H105.592V24.0909H107.673V35.2415C107.673 36.179 107.455 36.9484 107.02 37.5497C106.584 38.151 105.995 38.5961 105.251 38.8849C104.513 39.1738 103.679 39.3182 102.751 39.3182ZM102.73 33.0753C103.341 33.0753 103.857 32.9332 104.278 32.6491C104.705 32.3603 105.027 31.9484 105.244 31.4134C105.467 30.8736 105.578 30.2273 105.578 29.4744C105.578 28.7405 105.469 28.0942 105.251 27.5355C105.034 26.9768 104.714 26.5412 104.293 26.2287C103.871 25.9115 103.35 25.7528 102.73 25.7528C102.091 25.7528 101.558 25.9186 101.132 26.25C100.706 26.5767 100.384 27.0218 100.166 27.5852C99.9531 28.1487 99.8466 28.7784 99.8466 29.4744C99.8466 30.1894 99.9555 30.8168 100.173 31.3565C100.391 31.8963 100.713 32.3177 101.139 32.6207C101.57 32.9238 102.1 33.0753 102.73 33.0753ZM109.921 35V24.0909H111.974V25.8239H112.088C112.286 25.2367 112.637 24.7751 113.139 24.4389C113.645 24.098 114.218 23.9276 114.857 23.9276C114.99 23.9276 115.146 23.9323 115.326 23.9418C115.511 23.9512 115.655 23.9631 115.759 23.9773V26.0085C115.674 25.9848 115.523 25.9588 115.305 25.9304C115.087 25.8973 114.869 25.8807 114.651 25.8807C114.15 25.8807 113.702 25.9872 113.309 26.2003C112.921 26.4086 112.613 26.6998 112.386 27.0739C112.159 27.4432 112.045 27.8646 112.045 28.3381V35H109.921ZM120.074 35.2415C119.383 35.2415 118.758 35.1136 118.199 34.858C117.64 34.5975 117.198 34.2211 116.871 33.7287C116.549 33.2363 116.388 32.6326 116.388 31.9176C116.388 31.3021 116.506 30.7955 116.743 30.3977C116.98 30 117.3 29.6851 117.702 29.4531C118.104 29.2211 118.554 29.0459 119.051 28.9276C119.549 28.8092 120.055 28.7192 120.571 28.6577C121.225 28.5819 121.755 28.5204 122.162 28.473C122.569 28.4209 122.865 28.3381 123.05 28.2244C123.235 28.1108 123.327 27.9261 123.327 27.6705V27.6207C123.327 27.0005 123.152 26.5199 122.801 26.179C122.456 25.8381 121.94 25.6676 121.253 25.6676C120.538 25.6676 119.975 25.8262 119.563 26.1435C119.156 26.456 118.874 26.804 118.718 27.1875L116.722 26.733C116.959 26.0701 117.304 25.535 117.759 25.1278C118.218 24.7159 118.746 24.4176 119.343 24.233C119.939 24.0436 120.567 23.9489 121.225 23.9489C121.66 23.9489 122.122 24.0009 122.61 24.1051C123.102 24.2045 123.561 24.3892 123.988 24.6591C124.418 24.929 124.771 25.3149 125.046 25.8168C125.32 26.3139 125.458 26.9602 125.458 27.7557V35H123.384V33.5085H123.299C123.161 33.7831 122.955 34.053 122.681 34.3182C122.406 34.5833 122.053 34.8035 121.622 34.9787C121.192 35.1539 120.675 35.2415 120.074 35.2415ZM120.536 33.5369C121.123 33.5369 121.625 33.4209 122.041 33.1889C122.463 32.9569 122.782 32.6539 123 32.2798C123.223 31.901 123.334 31.4962 123.334 31.0653V29.6591C123.258 29.7348 123.112 29.8059 122.894 29.8722C122.681 29.9337 122.437 29.9882 122.162 30.0355C121.888 30.0781 121.62 30.1184 121.36 30.1562C121.099 30.1894 120.881 30.2178 120.706 30.2415C120.294 30.2936 119.918 30.3812 119.577 30.5043C119.241 30.6274 118.971 30.8049 118.767 31.0369C118.568 31.2642 118.469 31.5672 118.469 31.946C118.469 32.4716 118.663 32.8693 119.051 33.1392C119.44 33.4044 119.934 33.5369 120.536 33.5369ZM132.778 24.0909V25.7955H126.82V24.0909H132.778ZM128.418 21.4773H130.541V31.7969C130.541 32.2088 130.603 32.5189 130.726 32.7273C130.849 32.9309 131.008 33.0705 131.202 33.1463C131.401 33.2173 131.616 33.2528 131.848 33.2528C132.019 33.2528 132.168 33.241 132.296 33.2173C132.423 33.1937 132.523 33.1747 132.594 33.1605L132.977 34.9148C132.854 34.9621 132.679 35.0095 132.452 35.0568C132.225 35.1089 131.94 35.1373 131.6 35.142C131.041 35.1515 130.52 35.0521 130.037 34.8438C129.554 34.6354 129.163 34.3134 128.865 33.8778C128.567 33.4422 128.418 32.8954 128.418 32.2372V21.4773ZM139.112 35.2202C138.037 35.2202 137.112 34.9905 136.335 34.5312C135.563 34.0672 134.967 33.4162 134.545 32.5781C134.129 31.7353 133.92 30.7481 133.92 29.6165C133.92 28.4991 134.129 27.5142 134.545 26.6619C134.967 25.8097 135.554 25.1444 136.307 24.6662C137.064 24.188 137.95 23.9489 138.963 23.9489C139.578 23.9489 140.175 24.0507 140.753 24.2543C141.33 24.4579 141.849 24.7775 142.308 25.2131C142.767 25.6487 143.13 26.2145 143.395 26.9105C143.66 27.6018 143.792 28.4422 143.792 29.4318V30.1847H135.121V28.5938H141.712C141.712 28.035 141.598 27.5402 141.371 27.1094C141.143 26.6738 140.824 26.3305 140.412 26.0795C140.005 25.8286 139.526 25.7031 138.977 25.7031C138.381 25.7031 137.86 25.8499 137.415 26.1435C136.974 26.4323 136.633 26.8111 136.392 27.2798C136.155 27.7438 136.037 28.2481 136.037 28.7926V30.0355C136.037 30.7647 136.165 31.3849 136.42 31.8963C136.681 32.4077 137.043 32.7983 137.507 33.0682C137.971 33.3333 138.513 33.4659 139.133 33.4659C139.536 33.4659 139.903 33.4091 140.234 33.2955C140.566 33.1771 140.852 33.0019 141.094 32.7699C141.335 32.5379 141.52 32.2514 141.648 31.9105L143.658 32.2727C143.497 32.8646 143.208 33.383 142.791 33.8281C142.379 34.2685 141.861 34.6117 141.236 34.858C140.615 35.0994 139.908 35.2202 139.112 35.2202Z" fill="#2E421F"/>
</svg>
