<svg width="55" height="55" viewBox="0 0 55 55" fill="none" xmlns="http://www.w3.org/2000/svg">
<circle cx="27.5" cy="27.5" r="27.5" fill="#C5EBAD"/>
<path fill-rule="evenodd" clip-rule="evenodd" d="M26.205 20.0463C26.205 20.0463 29.2486 12.3737 33.5963 11.1796C38.2333 9.90598 45 15.824 45 15.824C45 15.824 41.2348 22.6414 36.9752 23.6351C32.6576 24.6424 26.205 20.0463 26.205 20.0463Z" fill="#7FB955"/>
<path fill-rule="evenodd" clip-rule="evenodd" d="M19.6584 13.7129C23.175 14.2518 26.205 20.0463 26.205 20.0463C26.205 20.0463 21.8834 23.76 18.6025 23.6351C15.1255 23.5029 11 18.9907 11 18.9907C11 18.9907 15.7438 13.113 19.6584 13.7129Z" fill="#7FB955"/>
<path d="M26.205 20.0463C26.205 20.0463 29.2486 12.3737 33.5963 11.1796C38.2333 9.90598 45 15.824 45 15.824C45 15.824 41.2348 22.6414 36.9752 23.6351C32.6576 24.6424 26.205 20.0463 26.205 20.0463ZM26.205 20.0463C26.205 20.0463 23.175 14.2518 19.6584 13.7129C15.7438 13.113 11 18.9907 11 18.9907C11 18.9907 15.1255 23.5029 18.6025 23.6351C21.8834 23.76 26.205 20.0463 26.205 20.0463ZM26.205 20.0463V49" stroke="#7FB955" stroke-width="2" stroke-linecap="round"/>
</svg>
